<svg width="13" height="9" viewBox="0 0 13 9" fill="none" xmlns="http://www.w3.org/2000/svg">
<g id="bxs:up-arrow">
<path id="Vector" d="M11.374 1.87502L1.62404 1.87502C1.52532 1.87524 1.42856 1.89408 1.34417 1.92954C1.25978 1.96499 1.19095 2.01571 1.1451 2.07623C1.09924 2.13675 1.0781 2.20478 1.08394 2.273C1.08978 2.34122 1.12239 2.40705 1.17825 2.4634L6.05325 7.3384C6.25529 7.54052 6.7417 7.54052 6.94429 7.3384L11.8193 2.4634C11.8757 2.40717 11.9088 2.34131 11.915 2.27297C11.9211 2.20464 11.9001 2.13644 11.8542 2.07579C11.8083 2.01515 11.7393 1.96436 11.6546 1.92897C11.57 1.89357 11.4729 1.87491 11.374 1.87502Z" fill="#F8F8F8"/>
</g>
</svg>
