<svg width="16" height="16" viewBox="0 0 16 16" fill="none" xmlns="http://www.w3.org/2000/svg">
<path id="icon-buscar" d="M15.7372 14.0706L12.7159 11.2465C13.6907 10.0823 14.2196 8.64459 14.2176 7.16452C14.2176 5.8464 13.8007 4.55789 13.0196 3.46191C12.2385 2.36594 11.1282 1.51173 9.82925 1.00731C8.53028 0.502888 7.10094 0.370908 5.72196 0.62806C4.34299 0.885212 3.07631 1.51995 2.08213 2.452C1.08794 3.38404 0.410893 4.57155 0.136597 5.86434C-0.137698 7.15713 0.00308013 8.49714 0.54113 9.71492C1.07918 10.9327 1.99033 11.9736 3.15937 12.7059C4.32841 13.4382 5.70283 13.829 7.10882 13.829C8.68756 13.8309 10.2211 13.335 11.463 12.4212L14.4753 15.2536C14.5579 15.3317 14.6562 15.3936 14.7645 15.4359C14.8728 15.4782 14.9889 15.5 15.1062 15.5C15.2236 15.5 15.3397 15.4782 15.448 15.4359C15.5563 15.3936 15.6545 15.3317 15.7372 15.2536C15.8204 15.1761 15.8865 15.084 15.9317 14.9825C15.9768 14.881 16 14.7721 16 14.6621C16 14.5521 15.9768 14.4432 15.9317 14.3417C15.8865 14.2402 15.8204 14.1481 15.7372 14.0706ZM1.77721 7.16452C1.77721 6.17593 2.0899 5.20955 2.67575 4.38757C3.26159 3.56558 4.09428 2.92493 5.0685 2.54661C6.04273 2.1683 7.11474 2.06931 8.14897 2.26218C9.1832 2.45504 10.1332 2.93109 10.8788 3.63013C11.6245 4.32916 12.1323 5.21979 12.338 6.18938C12.5437 7.15898 12.4381 8.16399 12.0346 9.07732C11.6311 9.99066 10.9477 10.7713 10.0709 11.3205C9.19413 11.8698 8.16332 12.1629 7.10882 12.1629C5.69479 12.1629 4.33867 11.6363 3.3388 10.6989C2.33893 9.76154 1.77721 8.49018 1.77721 7.16452Z" fill="#E8E8E8"/>
</svg>
