<svg width="29" height="25" viewBox="0 0 29 25" fill="none" xmlns="http://www.w3.org/2000/svg">
<g id="material-symbols:notifications-outline-sharp">
<path id="Vector" d="M4.83398 19.5V17.5H7.25065V10.5C7.25065 9.11667 7.75412 7.88733 8.76107 6.812C9.76801 5.73667 11.077 5.03267 12.6882 4.7V2.5H16.3132V4.7C17.9243 5.03333 19.2333 5.73767 20.2402 6.813C21.2472 7.88833 21.7507 9.11733 21.7507 10.5V17.5H24.1673V19.5H4.83398ZM14.5007 22.5C13.8361 22.5 13.2669 22.304 12.7933 21.912C12.3196 21.52 12.0832 21.0493 12.084 20.5H16.9173C16.9173 21.05 16.6805 21.521 16.2068 21.913C15.7331 22.305 15.1644 22.5007 14.5007 22.5ZM9.66732 17.5H19.334V10.5C19.334 9.4 18.8607 8.45833 17.9142 7.675C16.9677 6.89167 15.8298 6.5 14.5007 6.5C13.1715 6.5 12.0336 6.89167 11.0871 7.675C10.1406 8.45833 9.66732 9.4 9.66732 10.5V17.5Z" fill="#E8E8E8"/>
</g>
</svg>
